<svg width="90" height="90" viewBox="0 0 90 90" fill="none" xmlns="http://www.w3.org/2000/svg">
<g clip-path="url(#clip0_347_355)">
<path d="M64.4993 18.9733L56.6442 5.51636C56.2705 4.87626 55.6563 4.41006 54.9385 4.22506C54.2244 4.04746 53.4585 4.15106 52.8221 4.53216L28.8091 18.94L64.4993 18.9733Z" fill="white"/>
<path d="M11.7001 22.6399C9.6651 22.6399 8.0001 20.9749 8.0001 18.9399C8.0001 16.9049 9.6651 15.2399 11.7001 15.2399H24.1691L36.5271 7.83992H11.7001C6.2241 7.83992 1.6731 11.8359 0.785098 17.0899C0.711098 17.3859 0.600098 17.6819 0.600098 18.0149V74.4399C0.600098 80.5449 5.5951 85.5399 11.7001 85.5399H74.6001C78.6701 85.5399 82.0001 82.2099 82.0001 78.1399V70.7399H72.7501C63.5741 70.7399 56.1001 63.2659 56.1001 54.0899C56.1001 44.9139 63.5741 37.4399 72.7501 37.4399H82.0001V30.0399C82.0001 25.9699 78.6701 22.6399 74.6001 22.6399H11.7001ZM70.9001 15.2399C70.9001 11.5029 68.1251 8.39492 64.4991 7.91392L70.9001 18.9399V15.2399Z" fill="white"/>
<path d="M86.6251 42.99H72.7501C66.6303 42.99 61.6501 47.9702 61.6501 54.09C61.6501 60.2098 66.6303 65.19 72.7501 65.19H86.6251C88.1569 65.19 89.4001 63.9468 89.4001 62.415V45.765C89.4001 44.2332 88.1569 42.99 86.6251 42.99ZM72.7501 57.79C70.7077 57.79 69.0501 56.1324 69.0501 54.09C69.0501 52.0476 70.7077 50.39 72.7501 50.39C74.7925 50.39 76.4501 52.0476 76.4501 54.09C76.4501 56.1324 74.7925 57.79 72.7501 57.79Z" fill="white"/>
</g>
<defs>
<clipPath id="clip0_347_355">
<rect width="88.8" height="88.8" fill="white" transform="translate(0.600098 0.439941)"/>
</clipPath>
</defs>
</svg>
