<svg width="93" height="93" viewBox="0 0 93 93" fill="none" xmlns="http://www.w3.org/2000/svg">
<g clip-path="url(#clip0_347_340)">
<path d="M92.44 36.8182C92.4328 30.4863 87.3019 25.3554 80.97 25.3482H49.8372C43.5053 25.3554 38.3744 30.4863 38.3672 36.8182V56.4811C38.3744 62.8129 43.5053 67.9439 49.8372 67.9511H59.6686C60.1031 67.9511 60.5199 68.1239 60.8271 68.4311L76.0543 83.6583V69.5896C76.0543 68.6847 76.788 67.9511 77.6929 67.9511H80.97C87.3019 67.9439 92.4328 62.8129 92.44 56.4811V36.8182ZM84.2472 58.1196H46.56C45.6551 58.1196 44.9215 57.3859 44.9215 56.4811C44.9215 55.5762 45.6551 54.8425 46.56 54.8425H84.2472C85.1521 54.8425 85.8857 55.5762 85.8857 56.4811C85.8857 57.3859 85.1521 58.1196 84.2472 58.1196ZM84.2472 48.2882H46.56C45.6551 48.2882 44.9215 47.5545 44.9215 46.6496C44.9215 45.7447 45.6551 45.0111 46.56 45.0111H84.2472C85.1521 45.0111 85.8857 45.7447 85.8857 46.6496C85.8857 47.5545 85.1521 48.2882 84.2472 48.2882ZM84.2472 38.4568H46.56C45.6551 38.4568 44.9215 37.7231 44.9215 36.8182C44.9215 35.9133 45.6551 35.1796 46.56 35.1796H84.2472C85.1521 35.1796 85.8857 35.9133 85.8857 36.8182C85.8857 37.7231 85.1521 38.4568 84.2472 38.4568Z" fill="white"/>
<path d="M29.0157 52.0454C29.3229 51.7382 29.7398 51.5654 30.1742 51.5654H35.0899V36.8182C35.0995 28.6774 41.6962 22.0807 49.8371 22.0711H54.7528V20.4325C54.7456 14.1006 49.6147 8.9697 43.2828 8.9625H12.1499C5.81807 8.9697 0.687132 14.1006 0.679932 20.4325V40.0954C0.687132 46.4272 5.81807 51.5582 12.1499 51.5654H15.4271C16.332 51.5654 17.0656 52.299 17.0656 53.2039V63.9955L29.0157 52.0454ZM7.23422 18.7939H41.6442C42.5491 18.7939 43.2828 19.5276 43.2828 20.4325C43.2828 21.3374 42.5491 22.0711 41.6442 22.0711H7.23422C6.32932 22.0711 5.59565 21.3374 5.59565 20.4325C5.59565 19.5276 6.32932 18.7939 7.23422 18.7939ZM7.23422 28.6254H31.8128C32.7177 28.6254 33.4514 29.359 33.4514 30.2639C33.4514 31.1688 32.7177 31.9025 31.8128 31.9025H7.23422C6.32932 31.9025 5.59565 31.1688 5.59565 30.2639C5.59565 29.359 6.32932 28.6254 7.23422 28.6254ZM7.23422 41.7339C6.32932 41.7339 5.59565 41.0003 5.59565 40.0954C5.59565 39.1905 6.32932 38.4568 7.23422 38.4568H30.1742C31.0791 38.4568 31.8128 39.1905 31.8128 40.0954C31.8128 41.0003 31.0791 41.7339 30.1742 41.7339H7.23422Z" fill="white"/>
</g>
<defs>
<clipPath id="clip0_347_340">
<rect width="91.76" height="91.76" fill="white" transform="translate(0.679932 0.360001)"/>
</clipPath>
</defs>
</svg>
