<svg width="81" height="81" viewBox="0 0 81 81" fill="none" xmlns="http://www.w3.org/2000/svg">
<g clip-path="url(#clip0_347_345)">
<path d="M27.0854 41.4341L13.6522 53.5105C12.3604 54.6718 11.6226 56.3272 11.6226 58.0644V61.6661H27.0854V41.4341Z" fill="white"/>
<path d="M74.1217 1.04614C73.2802 0.667925 72.2954 0.818556 71.6057 1.43122L30.3423 38.0669C31.2389 38.9345 31.7716 40.1414 31.7716 41.4342V43.0647L54.1725 23.176H64.0924C70.385 23.176 75.5044 18.0566 75.5044 11.764V3.18338C75.5044 2.26086 74.9632 1.4242 74.1217 1.04614ZM70.8182 11.764C70.8182 15.4725 67.801 18.4898 64.0924 18.4898H59.4506L70.8182 8.39722V11.764Z" fill="white"/>
<path d="M39.4729 69.9745C37.3532 67.6837 34.3471 66.3698 31.226 66.3698H6.99888C5.70487 66.3698 4.65576 67.4189 4.65576 68.7129C4.65576 70.007 5.70487 71.0561 6.99888 71.0561H12.4642V76.485C12.4642 77.552 13.3291 78.409 14.3962 78.409H16.2975C16.2975 79.703 17.3466 80.7602 18.6407 80.7602C19.9348 80.7602 20.9838 79.7032 20.9838 78.409H31.6149C32.9089 78.409 33.958 77.3198 33.958 76.0258C33.958 74.7317 32.9089 73.6826 31.6149 73.6826H24.817V71.0562H31.2259C33.0453 71.0562 34.7975 71.8222 36.0332 73.1575L38.2083 75.508C38.67 76.007 39.2986 76.2597 39.9287 76.2597C40.498 76.2597 41.0687 76.0535 41.5195 75.6363C42.4695 74.7573 42.5267 73.2749 41.6479 72.3251L39.4729 69.9745Z" fill="white"/>
</g>
<defs>
<clipPath id="clip0_347_345">
<rect width="79.92" height="79.92" fill="white" transform="translate(0.120117 0.840088)"/>
</clipPath>
</defs>
</svg>
