<svg width="204" height="41" viewBox="0 0 204 41" fill="none" xmlns="http://www.w3.org/2000/svg">
<path fill-rule="evenodd" clip-rule="evenodd" d="M20.5731 39.8072C20.9139 39.8072 21.1 39.5488 21.2839 39.3291L21.5499 39.0372C21.6426 38.942 21.7117 38.8309 21.8043 38.7336C22.0764 38.448 22.3068 38.1182 22.5688 37.8241L24.1213 36.0044C24.2129 35.9081 24.2876 35.8011 24.3764 35.7015C24.9701 35.035 25.8502 33.9681 26.4234 33.2602C26.8392 32.7467 27.257 32.2167 27.7244 31.747L27.997 31.4373C28.278 31.0724 28.6122 30.7351 28.8945 30.3697C29.1783 30.0024 29.5111 29.6741 29.8093 29.3194L30.3318 28.7259C30.6511 28.3665 31.0785 27.8831 31.3691 27.507C31.4476 27.4053 31.5401 27.3144 31.6257 27.2056C32.0416 26.6764 32.4993 26.2049 32.9116 25.6772L33.5587 24.9172C33.619 24.8538 33.6315 24.8212 33.6919 24.7592L34.7247 23.56C34.9051 23.3454 35.0572 23.1474 35.2343 22.9293L36.5196 21.4004C36.768 21.1033 37.1675 20.8134 37.1675 20.3501V14.0908C37.1675 13.7521 36.8064 13.5695 36.582 13.3904L32.2392 9.96983C32.1115 9.87474 31.9973 9.78299 31.8731 9.6809C31.2226 9.1465 31.2771 9.50039 30.4749 10.5036C30.3709 10.6335 30.2813 10.7526 30.1748 10.8828L28.9884 12.3651C28.8892 12.4897 28.7964 12.6094 28.7005 12.7322L24.6143 17.9865C24.511 18.118 24.4085 18.2305 24.3059 18.3573C23.9083 18.8484 23.499 19.3348 23.1205 19.8406L19.9349 23.9817C19.8137 24.1417 19.8119 24.2749 19.8203 24.548L19.8688 26.1492C19.8726 26.2756 19.895 26.3146 19.8944 26.4632C19.8934 26.6995 19.892 26.9212 19.9146 27.1224C19.9368 27.3206 19.9069 27.5692 19.918 27.774C19.9242 27.8903 19.9435 27.9412 19.9426 28.0889C19.942 28.2023 19.9427 28.3156 19.9423 28.429L19.9665 29.3995C19.9728 29.5158 19.992 29.5666 19.9912 29.7144C19.9899 29.9431 19.9899 30.1556 20.0116 30.3491L20.1109 33.5977C20.128 33.804 20.0964 34.0439 20.1134 34.2502C20.1743 34.9855 20.1467 36.0837 20.2079 36.8244C20.2254 37.0362 20.1894 37.2907 20.2127 37.4989C20.2345 37.6923 20.2345 37.9048 20.2332 38.1335L20.2577 38.7882C20.2577 39.0335 20.2834 39.1892 20.281 39.42C20.2791 39.617 20.3595 39.8072 20.5731 39.8072ZM10.3351 5.59952C10.3351 5.83245 10.7591 6.18292 10.9235 6.34543C11.0128 6.43368 11.0539 6.50173 11.1416 6.58835L13.1191 8.58961C13.2086 8.67836 13.2515 8.74761 13.337 8.83266L15.0963 10.6397C15.2542 10.7976 15.3747 10.9425 15.533 11.1007L16.843 12.4593C16.9785 12.5947 17.1265 12.8238 17.3707 12.8292C17.3707 12.392 17.4207 11.9504 17.4187 11.6399L17.4907 10.4504C17.5132 10.1793 17.4899 9.89712 17.5198 9.6304C17.5345 9.49998 17.5377 9.40039 17.5395 9.23772C17.5413 9.092 17.5665 9.02167 17.5648 8.85049L17.6442 7.23163C17.7043 6.79307 17.7193 5.19129 17.7729 4.83724C17.7934 4.70181 17.7732 4.57135 17.7844 4.4363L17.9775 0.844691C17.9699 0.0354067 18.1419 -0.251814 17.1358 0.245624C16.9926 0.316419 16.6109 0.623724 16.4522 0.750729C16.3713 0.815357 16.3018 0.860734 16.2164 0.927487C16.0551 1.05345 15.915 1.16671 15.7523 1.28813L12.5595 3.74819C11.9946 4.2095 11.1152 4.86349 10.4905 5.34255C10.418 5.39826 10.3351 5.48456 10.3351 5.59952ZM19.1419 1.40234C19.1532 1.6116 19.1209 1.87503 19.1484 2.07512C19.238 3.04079 19.1238 20.6869 19.8148 20.8899C19.9538 20.9308 20.2508 20.545 20.3512 20.4192L21.5008 19.1428C21.5603 19.0785 21.6146 19.0383 21.6685 18.9708L22.1572 18.4164C22.3402 18.1974 22.6355 17.9163 22.8258 17.6778C22.8796 17.6103 22.9339 17.5702 22.9934 17.5058C23.0578 17.4363 23.078 17.3947 23.1506 17.3234C23.2248 17.2505 23.2471 17.2241 23.311 17.1441C23.5215 16.8802 23.9566 16.4978 24.1696 16.2559L24.8253 15.5287C25.1023 15.2418 25.3665 14.8838 25.6498 14.6064C25.724 14.5337 25.7432 14.4976 25.8076 14.4246L26.3058 13.8796C26.53 13.6114 26.9089 13.2781 27.1665 13.0178L27.5046 12.6523C27.6609 12.4652 27.8501 12.2935 28.0005 12.105C28.0686 12.0197 28.095 11.9913 28.1732 11.9137C28.4253 11.6637 28.8834 11.1044 29.1675 10.8217L30.3443 9.57244C30.4197 9.49802 30.4441 9.44968 30.5135 9.37768C31.0507 8.81991 30.7178 8.78649 30.1485 8.32439L24.7736 4.09204C24.6488 3.99908 24.5494 3.9122 24.42 3.81486L22.9826 2.68064C22.7386 2.48255 22.5081 2.31146 22.2637 2.11362L20.4705 0.704519C20.263 0.533761 19.9726 0.271667 19.7407 0.148453C19.0387 -0.292732 19.1161 0.694727 19.1419 1.40234ZM23.4359 39.6616C23.4359 39.7271 23.4475 39.7285 23.4602 39.7829C23.5146 39.7956 23.516 39.8072 23.5815 39.8072H35.1053C35.3342 39.8072 35.7395 39.6025 35.8918 39.5019C36.0152 39.4203 36.105 39.3586 36.2158 39.2679C36.5524 38.9922 36.7333 38.6924 36.9252 38.3034C37.0151 38.1213 37.1675 37.6945 37.1675 37.4296V21.8057C37.1675 21.731 37.1339 21.733 37.0705 21.733C36.9797 21.733 36.6906 22.1666 36.6234 22.2563L35.6699 23.5105C35.3693 23.8216 34.2584 25.313 33.8369 25.8746C32.9297 27.0834 31.9437 28.3071 31.0538 29.4964C30.2005 30.6368 29.3783 31.7348 28.4959 32.8581C28.3475 33.0471 28.2075 33.2096 28.0664 33.399L26.7943 35.111C26.5069 35.4922 26.2318 35.8514 25.9379 36.2198L24.6663 37.908C24.5921 38.0074 24.5256 38.087 24.4548 38.1817L23.5881 39.3043C23.5186 39.3964 23.4359 39.5111 23.4359 39.6616ZM0.33964 13.363C0.33964 13.5501 0.411434 13.668 0.539606 13.7938C0.974583 14.2206 1.38089 14.7806 1.76541 15.2609C2.01034 15.5573 2.2278 15.8808 2.49277 16.1591C2.7582 16.4377 2.98463 16.749 3.23393 17.0433C3.32123 17.1464 3.39402 17.2221 3.47952 17.3315L4.73083 18.7974C5.09213 19.2676 5.59386 19.7984 5.98517 20.2603L6.7265 21.1444C7.24218 21.7235 7.7097 22.343 8.21902 22.9271L10.717 25.8393C10.8035 25.9364 10.8755 26.0291 10.9582 26.1318C11.0473 26.2424 11.1257 26.3297 11.2119 26.4361L12.1977 27.6337C12.246 27.6891 12.2724 27.7257 12.3191 27.7793L13.3254 28.9322C13.5082 29.1121 13.6648 29.3247 13.8343 29.515L15.1872 31.1461C15.2635 31.2442 15.3536 31.339 15.43 31.4371C15.5113 31.5415 15.5902 31.6385 15.68 31.7451C15.766 31.8473 16.0673 32.2864 16.2304 32.2864C16.4155 32.2864 16.3668 32.0759 16.3759 31.8981C16.6661 26.2102 17.2299 20.2203 17.275 14.5758C17.2771 14.3147 17.1917 14.3083 16.9791 14.0457L16.6127 13.6115C16.2779 13.2749 15.8043 12.6787 15.4359 12.3137L14.2712 11.0281C13.9095 10.6211 13.3294 9.89379 13.0097 9.57236L11.2884 7.72732C11.1166 7.5221 10.9593 7.34051 10.7777 7.14638L10.402 6.72136C10.2674 6.56981 9.87338 6.03625 9.70429 6.03625C9.55716 6.03625 9.44557 6.15034 9.34069 6.23059L7.8745 7.36035C7.2864 7.81982 6.68362 8.25009 6.10618 8.72165C5.53336 9.18938 4.92263 9.60365 4.35023 10.071C4.15284 10.2323 3.96079 10.3702 3.76374 10.5278C3.28252 10.9128 2.77579 11.2664 2.29722 11.6572L1.70578 12.109C1.60365 12.1924 1.50677 12.2683 1.40739 12.3443L0.824827 12.805C0.766741 12.8497 0.752366 12.8693 0.697697 12.9204C0.639236 12.9751 0.611485 12.9835 0.55144 13.041C0.478937 13.1104 0.33964 13.2401 0.33964 13.363ZM0 14.6003V37.187C0 37.8626 0.181924 38.5046 0.648486 38.9889C0.843619 39.1915 1.07796 39.4099 1.33368 39.541C1.53123 39.6423 2.00929 39.8072 2.30481 39.8072H15.7695C15.9638 39.8072 15.9775 39.6514 15.9888 39.4685L16.0187 38.9162C16.0532 38.6649 16.0566 38.3426 16.0597 38.0837C16.0612 37.9529 16.0821 37.9408 16.0856 37.8186L16.1569 36.1673C16.1605 36.0452 16.1813 36.033 16.1829 35.9022C16.1894 35.374 16.1476 35.4433 15.7348 34.8926L12.9656 31.257C12.8759 31.1374 12.8032 31.0404 12.7161 30.9243C11.4541 29.242 10.1257 27.4195 8.84117 25.7743L8.06859 24.7758C8.01922 24.7125 7.98859 24.678 7.94013 24.6131L2.6757 17.6259C2.50548 17.3977 2.33577 17.1995 2.16618 16.9709L0.402226 14.659C0.367933 14.6148 0.301805 14.5278 0.268137 14.5008C0.187383 14.4361 0 14.4317 0 14.6003Z" fill="url(#paint0_radial_402_82)"/>
<path d="M51.4893 34V13.7607H63.6353V34H59.2285V16.959H55.896V34H51.4893ZM72.4121 34.2808C71.2891 34.2808 70.3288 34.1343 69.5312 33.8413C68.7419 33.5402 68.1112 33.0967 67.6392 32.5107C67.1753 31.9167 66.8376 31.2209 66.626 30.4233C66.4225 29.6258 66.3208 28.6859 66.3208 27.6035V20.1328C66.3208 19.0423 66.4225 18.1024 66.626 17.313C66.8376 16.5155 67.1753 15.8237 67.6392 15.2378C68.1112 14.6519 68.7419 14.2124 69.5312 13.9194C70.3288 13.6265 71.2891 13.48 72.4121 13.48C74.6012 13.48 76.1678 14.0415 77.1118 15.1646C78.064 16.2795 78.54 17.9355 78.54 20.1328V27.6035C78.54 29.8008 78.064 31.465 77.1118 32.5962C76.1678 33.7192 74.6012 34.2808 72.4121 34.2808ZM71.7163 30.9727C71.9116 31.0703 72.1436 31.1191 72.4121 31.1191C72.6807 31.1191 72.9126 31.0744 73.1079 30.9849C73.3032 30.8872 73.4538 30.7692 73.5596 30.6309C73.6654 30.4844 73.7467 30.2972 73.8037 30.0693C73.8688 29.8415 73.9095 29.6299 73.9258 29.4346C73.9421 29.2311 73.9502 28.991 73.9502 28.7144V19.0098C73.9502 18.7412 73.9421 18.5093 73.9258 18.314C73.9095 18.1105 73.8688 17.8989 73.8037 17.6792C73.7467 17.4513 73.6654 17.2682 73.5596 17.1299C73.4538 16.9915 73.3032 16.8776 73.1079 16.7881C72.9126 16.6904 72.6807 16.6416 72.4121 16.6416C72.1436 16.6416 71.9116 16.6904 71.7163 16.7881C71.5291 16.8776 71.3826 16.9915 71.2769 17.1299C71.1711 17.2601 71.0897 17.4432 71.0327 17.6792C70.9757 17.9071 70.9391 18.1146 70.9229 18.3018C70.9147 18.4889 70.9106 18.7249 70.9106 19.0098V28.7144C70.9106 28.9992 70.9147 29.2393 70.9229 29.4346C70.9391 29.6217 70.9757 29.8333 71.0327 30.0693C71.0897 30.2972 71.1711 30.4803 71.2769 30.6187C71.3826 30.757 71.5291 30.875 71.7163 30.9727ZM81.311 34V13.7607H85.791V21.8052H86.2183L89.1968 13.7607H93.6279L89.9536 23.2578L93.7622 34H89.1724L86.2183 25.1377H85.791V34H81.311ZM101.343 34.2808C100.22 34.2808 99.2594 34.1343 98.4619 33.8413C97.6725 33.5402 97.0418 33.0967 96.5698 32.5107C96.106 31.9167 95.7682 31.2209 95.5566 30.4233C95.3532 29.6258 95.2515 28.6859 95.2515 27.6035V20.1328C95.2515 19.0423 95.3532 18.1024 95.5566 17.313C95.7682 16.5155 96.106 15.8237 96.5698 15.2378C97.0418 14.6519 97.6725 14.2124 98.4619 13.9194C99.2594 13.6265 100.22 13.48 101.343 13.48C103.532 13.48 105.098 14.0415 106.042 15.1646C106.995 16.2795 107.471 17.9355 107.471 20.1328V27.6035C107.471 29.8008 106.995 31.465 106.042 32.5962C105.098 33.7192 103.532 34.2808 101.343 34.2808ZM100.647 30.9727C100.842 31.0703 101.074 31.1191 101.343 31.1191C101.611 31.1191 101.843 31.0744 102.039 30.9849C102.234 30.8872 102.384 30.7692 102.49 30.6309C102.596 30.4844 102.677 30.2972 102.734 30.0693C102.799 29.8415 102.84 29.6299 102.856 29.4346C102.873 29.2311 102.881 28.991 102.881 28.7144V19.0098C102.881 18.7412 102.873 18.5093 102.856 18.314C102.84 18.1105 102.799 17.8989 102.734 17.6792C102.677 17.4513 102.596 17.2682 102.49 17.1299C102.384 16.9915 102.234 16.8776 102.039 16.7881C101.843 16.6904 101.611 16.6416 101.343 16.6416C101.074 16.6416 100.842 16.6904 100.647 16.7881C100.46 16.8776 100.313 16.9915 100.208 17.1299C100.102 17.2601 100.02 17.4432 99.9634 17.6792C99.9064 17.9071 99.8698 18.1146 99.8535 18.3018C99.8454 18.4889 99.8413 18.7249 99.8413 19.0098V28.7144C99.8413 28.9992 99.8454 29.2393 99.8535 29.4346C99.8698 29.6217 99.9064 29.8333 99.9634 30.0693C100.02 30.2972 100.102 30.4803 100.208 30.6187C100.313 30.757 100.46 30.875 100.647 30.9727ZM115.955 34.2808C114.823 34.2808 113.859 34.1261 113.062 33.8169C112.264 33.4995 111.633 33.0356 111.169 32.4253C110.714 31.8149 110.384 31.111 110.181 30.3135C109.977 29.516 109.875 28.5801 109.875 27.5059V20.2915C109.875 19.1929 109.977 18.2407 110.181 17.4351C110.384 16.6213 110.714 15.9132 111.169 15.311C111.633 14.7007 112.26 14.245 113.049 13.9438C113.847 13.6346 114.815 13.48 115.955 13.48C117.045 13.48 117.973 13.6183 118.738 13.895C119.511 14.1717 120.113 14.5786 120.544 15.1157C120.984 15.6528 121.297 16.2632 121.484 16.9468C121.68 17.6304 121.777 18.4238 121.777 19.3271V21.1094H117.407V19.0708C117.407 18.7534 117.403 18.5133 117.395 18.3506C117.387 18.1878 117.358 17.9803 117.31 17.728C117.261 17.4676 117.188 17.2723 117.09 17.1421C117 17.0119 116.858 16.8979 116.663 16.8003C116.467 16.6945 116.231 16.6416 115.955 16.6416C115.678 16.6416 115.442 16.6945 115.247 16.8003C115.051 16.8979 114.901 17.02 114.795 17.1665C114.697 17.3049 114.616 17.5002 114.551 17.7524C114.494 17.9966 114.457 18.2204 114.441 18.4238C114.433 18.6273 114.429 18.8796 114.429 19.1807V28.6167C114.429 29.4305 114.535 30.0531 114.746 30.4844C114.958 30.9076 115.361 31.1191 115.955 31.1191C116.223 31.1191 116.451 31.0703 116.638 30.9727C116.833 30.8669 116.98 30.7448 117.078 30.6064C117.175 30.4681 117.249 30.2728 117.297 30.0205C117.354 29.7682 117.387 29.5485 117.395 29.3613C117.403 29.1742 117.407 28.9259 117.407 28.6167V26.4927H121.777V28.2383C121.777 28.9626 121.72 29.6177 121.606 30.2036C121.493 30.7896 121.297 31.3429 121.021 31.8638C120.752 32.3765 120.398 32.8078 119.958 33.1577C119.527 33.5076 118.974 33.7843 118.298 33.9878C117.623 34.1831 116.842 34.2808 115.955 34.2808ZM132.507 34V17.0688H129.395V13.7607H140.063V17.0688H136.987V34H132.507ZM146.265 22.269H147.693C148.499 22.269 149.032 22.0656 149.292 21.6587C149.561 21.2437 149.695 20.5438 149.695 19.5591C149.695 19.2091 149.683 18.9162 149.658 18.6802C149.642 18.4442 149.593 18.2041 149.512 17.96C149.438 17.7158 149.329 17.5246 149.182 17.3862C149.044 17.2397 148.848 17.1217 148.596 17.0322C148.344 16.9427 148.039 16.8979 147.681 16.8979H146.265V22.269ZM141.797 34V13.7607H148.547C150.338 13.7607 151.676 14.2612 152.563 15.2622C153.451 16.2632 153.894 17.7199 153.894 19.6323C153.894 20.3892 153.825 21.0687 153.687 21.6709C153.556 22.2731 153.361 22.7817 153.101 23.1968C152.84 23.6118 152.539 23.9658 152.197 24.2588C151.855 24.5436 151.457 24.7674 151.001 24.9302C150.545 25.0929 150.077 25.2109 149.597 25.2842C149.125 25.3493 148.6 25.3818 148.022 25.3818H146.265V34H141.797ZM159.863 27.0298H162.024L160.938 19.1929L159.863 27.0298ZM154.553 34L158.386 13.7607H163.44L167.249 34H163.123L162.427 29.7031H159.473L158.789 34H154.553ZM173.853 21.854H174.695C175.655 21.854 176.31 21.6383 176.66 21.207C177.01 20.7676 177.185 20.084 177.185 19.1562C177.185 17.5612 176.31 16.7637 174.561 16.7637H173.853V21.854ZM173.853 30.875H174.78C175.749 30.875 176.428 30.639 176.819 30.167C177.209 29.695 177.405 28.9504 177.405 27.9331C177.405 26.7938 177.205 25.9881 176.807 25.5161C176.408 25.0441 175.712 24.8081 174.719 24.8081H173.853V30.875ZM169.373 34V13.7607H174.646C175.403 13.7607 176.074 13.8014 176.66 13.8828C177.254 13.9561 177.84 14.1066 178.418 14.3345C179.004 14.5623 179.484 14.8675 179.858 15.25C180.241 15.6243 180.546 16.137 180.774 16.7881C180.986 17.3903 181.091 18.0902 181.091 18.8877C181.091 18.9447 181.091 19.0016 181.091 19.0586C181.042 21.4186 180.05 22.7736 178.113 23.1235C179.277 23.2782 180.164 23.7664 180.774 24.5884C181.384 25.4103 181.698 26.5456 181.714 27.9941C181.714 28.0511 181.714 28.1121 181.714 28.1772C181.714 30.1385 181.201 31.5911 180.176 32.5352C179.118 33.5117 177.592 34 175.598 34H169.373ZM197.217 34V13.7607H201.697V34H197.217ZM188.574 31.0459H189.148C189.986 31.0459 190.576 30.8099 190.918 30.3379C191.243 29.8984 191.406 29.2026 191.406 28.2505C191.406 28.1854 191.406 28.1162 191.406 28.043C191.382 27.1885 191.203 26.5334 190.869 26.0776C190.535 25.6219 189.941 25.394 189.087 25.394H188.574V31.0459ZM184.094 34V13.7607H188.574V22.3057H189.502C191.488 22.3057 192.989 22.7777 194.006 23.7217C195.032 24.6576 195.544 26.1265 195.544 28.1284C195.544 28.8201 195.487 29.4468 195.374 30.0083C195.26 30.5698 195.101 31.054 194.897 31.4609C194.702 31.8597 194.45 32.2096 194.141 32.5107C193.84 32.8118 193.514 33.056 193.164 33.2432C192.814 33.4303 192.415 33.5809 191.968 33.6948C191.52 33.8088 191.069 33.8901 190.613 33.939C190.165 33.9797 189.669 34 189.124 34H184.094Z" fill="#333333"/>
<defs>
<radialGradient id="paint0_radial_402_82" cx="0" cy="0" r="1" gradientUnits="userSpaceOnUse" gradientTransform="translate(23.7852 12.7379) scale(33.5097 35.8898)">
<stop stop-color="#82B93E"/>
<stop offset="1" stop-color="#0A703A"/>
</radialGradient>
</defs>
</svg>
