<svg width="17" height="18" viewBox="0 0 17 18" fill="none" xmlns="http://www.w3.org/2000/svg">
<g clip-path="url(#clip0_347_129)">
<path d="M16.5373 12.9763L14.1649 10.6039C13.3176 9.7566 11.8772 10.0955 11.5383 11.197C11.2841 11.9596 10.4368 12.3832 9.67426 12.2137C7.97969 11.7901 5.69202 9.58714 5.26837 7.80784C5.01419 7.04525 5.52256 6.19797 6.28512 5.94381C7.38659 5.6049 7.7255 4.16451 6.87822 3.31723L4.50582 0.944825C3.82799 0.351725 2.81125 0.351725 2.21815 0.944825L0.608302 2.55467C-1.00154 4.24924 0.777759 8.73986 4.76 12.7221C8.74225 16.7043 13.2329 18.5684 14.9274 16.8738L16.5373 15.264C17.1304 14.5861 17.1304 13.5694 16.5373 12.9763Z" fill="#219653"/>
</g>
<defs>
<clipPath id="clip0_347_129">
<rect width="17" height="17" fill="white" transform="translate(0 0.5)"/>
</clipPath>
</defs>
</svg>
